<?xml version="1.0" encoding="UTF-8" standalone="no"?><!-- Generator: Gravit.io --><svg xmlns="http://www.w3.org/2000/svg" xmlns:xlink="http://www.w3.org/1999/xlink" style="isolation:isolate" viewBox="0 0 64 64" width="64pt" height="64pt"><defs><clipPath id="_clipPath_6blrxzobyt31IR2ymjeT2zyySdHWgUIb"><rect width="64" height="64"/></clipPath></defs><g clip-path="url(#_clipPath_6blrxzobyt31IR2ymjeT2zyySdHWgUIb)"><rect width="64" height="64" style="fill:rgb(251,251,251)" fill-opacity="0"/><path d=" M 29 52 C 29 50.344 30.344 49 32 49 C 33.656 49 35 50.344 35 52 C 35 53.656 33.656 55 32 55 C 30.344 55 29 53.656 29 52 L 29 52 L 29 52 Z  M 34.268 7.456 L 46 30.5 L 57.732 53.544 C 58.984 56.003 57.76 58 55 58 L 32 58 L 9 58 C 6.24 58 5.016 56.003 6.268 53.544 L 18 30.5 L 29.732 7.456 C 30.984 4.997 33.016 4.997 34.268 7.456 L 34.268 7.456 L 34.268 7.456 Z  M 32 15.5 L 32 15.5 C 33.656 15.5 35 16.844 35 18.5 L 35 42.5 C 35 44.156 33.656 45.5 32 45.5 L 32 45.5 C 30.344 45.5 29 44.156 29 42.5 L 29 18.5 C 29 16.844 30.344 15.5 32 15.5 Z " fill-rule="evenodd" fill="rgb(231,76,60)"/></g></svg>