<?xml version="1.0" encoding="UTF-8" standalone="no"?><!-- Generator: Gravit.io --><svg xmlns="http://www.w3.org/2000/svg" xmlns:xlink="http://www.w3.org/1999/xlink" style="isolation:isolate" viewBox="0 0 64 64" width="64pt" height="64pt"><defs><clipPath id="_clipPath_9WeSeb60y076SMcbY3sVufcy4kGL7coN"><rect width="64" height="64"/></clipPath></defs><g clip-path="url(#_clipPath_9WeSeb60y076SMcbY3sVufcy4kGL7coN)"><rect width="64" height="64" style="fill:rgb(251,251,251)" fill-opacity="0"/><path d=" M 27.5 32 C 27.5 29.516 29.516 27.5 32 27.5 C 34.484 27.5 36.5 29.516 36.5 32 C 36.5 34.484 34.484 36.5 32 36.5 C 29.516 36.5 27.5 34.484 27.5 32 L 27.5 32 L 27.5 32 Z  M 43 32 C 43 29.516 45.016 27.5 47.5 27.5 C 49.984 27.5 52 29.516 52 32 C 52 34.484 49.984 36.5 47.5 36.5 C 45.016 36.5 43 34.484 43 32 L 43 32 Z  M 4 32 C 4 16.546 16.546 4 32 4 C 47.454 4 60 16.546 60 32 C 60 47.454 47.454 60 32 60 C 16.546 60 4 47.454 4 32 L 4 32 L 4 32 Z  M 12 32 C 12 29.516 14.016 27.5 16.5 27.5 C 18.984 27.5 21 29.516 21 32 C 21 34.484 18.984 36.5 16.5 36.5 C 14.016 36.5 12 34.484 12 32 Z " fill-rule="evenodd" fill="rgb(241,196,15)"/></g></svg>