<?xml version="1.0" encoding="UTF-8" standalone="no"?><!-- Generator: Gravit.io --><svg xmlns="http://www.w3.org/2000/svg" xmlns:xlink="http://www.w3.org/1999/xlink" style="isolation:isolate" viewBox="0 0 24 24" width="24pt" height="24pt"><defs><clipPath id="_clipPath_LSlq2nl3FM2ZCkjeCbn7QdtLrnsxrXDO"><rect width="24" height="24"/></clipPath></defs><g clip-path="url(#_clipPath_LSlq2nl3FM2ZCkjeCbn7QdtLrnsxrXDO)"><rect width="24" height="24" style="fill:rgb(251,251,251)" fill-opacity="0"/><mask id="_mask_bs477YWXubORV5v9JWNEUBcixq2IibZG"><path d=" M 2.989 5.691 C 6.472 0.718 13.336 -0.493 18.309 2.989 C 23.282 6.472 24.493 13.336 21.011 18.309 C 17.528 23.282 10.664 24.493 5.691 21.011 C 0.718 17.528 -0.493 10.664 2.989 5.691 Z " fill="white" stroke="none"/></mask><path d=" M 2.989 5.691 C 6.472 0.718 13.336 -0.493 18.309 2.989 C 23.282 6.472 24.493 13.336 21.011 18.309 C 17.528 23.282 10.664 24.493 5.691 21.011 C 0.718 17.528 -0.493 10.664 2.989 5.691 Z " fill="none" mask="url(#_mask_bs477YWXubORV5v9JWNEUBcixq2IibZG)" vector-effect="non-scaling-stroke" stroke-width="2" stroke="rgb(0,0,0)" stroke-linejoin="round" stroke-linecap="round" stroke-miterlimit="3"/><path d=" M 2.989 5.691 C 6.472 0.718 13.336 -0.493 18.309 2.989 C 23.282 6.472 24.493 13.336 21.011 18.309 C 17.528 23.282 10.664 24.493 5.691 21.011 C 0.718 17.528 -0.493 10.664 2.989 5.691 Z " fill="none"/><clipPath id="_clipPath_aa9MrvS89SdFGqArt3DXW7A2fL8NXhXB"><path d=" M 2.989 5.691 C 6.472 0.718 13.336 -0.493 18.309 2.989 C 23.282 6.472 24.493 13.336 21.011 18.309 C 17.528 23.282 10.664 24.493 5.691 21.011 C 0.718 17.528 -0.493 10.664 2.989 5.691 Z " fill="none" mask="url(#_mask_bs477YWXubORV5v9JWNEUBcixq2IibZG)" vector-effect="non-scaling-stroke" stroke-width="2" stroke="rgb(0,0,0)" stroke-linejoin="round" stroke-linecap="round" stroke-miterlimit="3"/><path d=" M 2.989 5.691 C 6.472 0.718 13.336 -0.493 18.309 2.989 C 23.282 6.472 24.493 13.336 21.011 18.309 C 17.528 23.282 10.664 24.493 5.691 21.011 C 0.718 17.528 -0.493 10.664 2.989 5.691 Z " fill="none"/></clipPath><g clip-path="url(#_clipPath_aa9MrvS89SdFGqArt3DXW7A2fL8NXhXB)"><path d="M 19.128 3.563 L 27.32 9.299 L 20.437 19.128 C 18.854 21.389 15.734 21.939 13.473 20.356 L 10.197 18.062 C 8.388 16.796 7.948 14.3 9.215 12.491 L 14.95 4.3 C 15.9 2.943 17.772 2.613 19.128 3.563 Z" style="fill:none;stroke:#000000;stroke-width:1;stroke-linecap:square;stroke-miterlimit:2;"/></g><path d=" M 2.989 5.691 C 6.472 0.718 13.336 -0.493 18.309 2.989 C 23.282 6.472 24.493 13.336 21.011 18.309 C 17.528 23.282 10.664 24.493 5.691 21.011 C 0.718 17.528 -0.493 10.664 2.989 5.691 Z " fill="transparent" mask="url(#_mask_bs477YWXubORV5v9JWNEUBcixq2IibZG)" vector-effect="non-scaling-stroke" stroke-width="2" stroke="rgb(0,0,0)" stroke-linejoin="round" stroke-linecap="round" stroke-miterlimit="3"/><path d=" M 17.336 6.728 C 18.899 8.307 19.648 10.475 19.475 12.614 L 17.336 6.728 Z " fill="none" vector-effect="non-scaling-stroke" stroke-width="1" stroke="rgb(0,0,0)" stroke-linejoin="round" stroke-linecap="round" stroke-miterlimit="3"/></g></svg>